<svg width="67" height="31" viewBox="0 0 67 31" fill="none" xmlns="http://www.w3.org/2000/svg">
<path fill-rule="evenodd" clip-rule="evenodd" d="M57.7727 8.45446H2.11364V28.8863H57.7727V8.45446ZM0 6.34082V30.9999H59.8864V6.34082H0Z" fill="white"/>
<path d="M14.1652 24.8141C12.9815 24.8141 12.1408 24.4853 11.6429 23.8277C11.1544 23.1608 10.9102 22.2214 10.9102 21.0096V16.9373C10.9102 15.6879 11.1544 14.7391 11.6429 14.0909C12.1314 13.4427 12.9721 13.1187 14.1652 13.1187C15.283 13.1187 16.0768 13.4005 16.5465 13.9641C17.0162 14.5277 17.2511 15.3403 17.2511 16.4018V17.36H15.2502V16.3737C15.2502 15.9697 15.2314 15.655 15.1938 15.4296C15.1562 15.1947 15.0576 15.0068 14.8979 14.8659C14.7476 14.7156 14.508 14.6405 14.1792 14.6405C13.8411 14.6405 13.5874 14.7203 13.4183 14.88C13.2492 15.0303 13.1365 15.237 13.0802 15.5C13.0332 15.7537 13.0097 16.0871 13.0097 16.5005V21.4464C13.0097 22.0946 13.0942 22.5643 13.2633 22.8555C13.4324 23.1373 13.7377 23.2782 14.1792 23.2782C14.4986 23.2782 14.7335 23.203 14.8838 23.0527C15.0435 22.9024 15.1421 22.7052 15.1797 22.4609C15.2267 22.2073 15.2502 21.8738 15.2502 21.4605V20.4318H17.2511V21.3477C17.2511 22.4468 17.0209 23.3017 16.5606 23.9123C16.1003 24.5135 15.3018 24.8141 14.1652 24.8141Z" fill="white"/>
<path d="M20.1121 13.2455H22.8598C24.0622 13.2455 24.9593 13.4756 25.5512 13.9359C26.143 14.3868 26.4389 15.1665 26.4389 16.275C26.4389 16.9983 26.3309 17.5902 26.1148 18.0505C25.9081 18.5014 25.5465 18.8302 25.0298 19.0368L26.6221 24.6591H24.5366L23.1698 19.4314H22.1834V24.6591H20.1121V13.2455ZM22.8457 18.135C23.4375 18.135 23.8556 17.9988 24.0998 17.7264C24.3534 17.454 24.4803 17.0077 24.4803 16.3877C24.4803 15.7865 24.3675 15.3497 24.1421 15.0773C23.926 14.8049 23.5315 14.6687 22.9584 14.6687H22.1834V18.135H22.8457Z" fill="white"/>
<path d="M29.4761 13.2455H31.5334V24.6591H29.4761V13.2455Z" fill="white"/>
<path d="M37.5839 24.8141C36.5506 24.8141 35.7756 24.5229 35.2589 23.9405C34.7516 23.358 34.4745 22.4891 34.4276 21.3337L36.2171 20.9814C36.2453 21.7047 36.358 22.259 36.5553 22.6441C36.7619 23.0199 37.0813 23.2077 37.5135 23.2077C37.8329 23.2077 38.0677 23.1138 38.218 22.9259C38.3777 22.7287 38.4576 22.4656 38.4576 22.1368C38.4576 21.6859 38.3542 21.3055 38.1476 20.9955C37.9503 20.6761 37.6356 20.3285 37.2035 19.9527L35.7662 18.6987C35.3247 18.3229 34.9912 17.919 34.7657 17.4868C34.5497 17.0547 34.4416 16.538 34.4416 15.9368C34.4416 15.0444 34.7 14.354 35.2166 13.8655C35.7427 13.3676 36.466 13.1187 37.3866 13.1187C38.373 13.1187 39.0776 13.4005 39.5003 13.9641C39.9324 14.5183 40.1813 15.2699 40.2471 16.2187L38.4576 16.5287C38.4294 15.9087 38.3401 15.4437 38.1898 15.1337C38.0489 14.8143 37.7671 14.6546 37.3444 14.6546C37.0438 14.6546 36.8089 14.7579 36.6398 14.9646C36.4707 15.1618 36.3862 15.4155 36.3862 15.7255C36.3862 16.0918 36.4566 16.4018 36.5976 16.6555C36.7479 16.8997 36.9874 17.1627 37.3162 17.4446L38.7394 18.6987C39.2748 19.159 39.6929 19.6521 39.9935 20.1782C40.2941 20.7043 40.4444 21.3149 40.4444 22.01C40.4444 22.5549 40.3223 23.0387 40.078 23.4614C39.8432 23.8841 39.5097 24.2176 39.0776 24.4618C38.6454 24.6967 38.1476 24.8141 37.5839 24.8141Z" fill="white"/>
<path d="M43.0814 13.2455H46.435C48.3795 13.2455 49.3518 14.3258 49.3518 16.4864C49.3518 18.553 48.3326 19.5864 46.2941 19.5864H45.1527V24.6591H43.0814V13.2455ZM45.9559 18.1209C46.5195 18.1209 46.9 18.0035 47.0973 17.7687C47.2945 17.5244 47.3932 17.0923 47.3932 16.4723C47.3932 16.0214 47.3603 15.6785 47.2945 15.4437C47.2288 15.1994 47.0926 15.0162 46.8859 14.8941C46.6886 14.772 46.3786 14.7109 45.9559 14.7109H45.1527V18.1209H45.9559Z" fill="white"/>
<path fill-rule="evenodd" clip-rule="evenodd" d="M6.34144 0H66.2278V24.6591H64.1142V26.7727H62.0005V22.5455H64.1142V2.11364H8.45508V4.22727H4.58008V2.11364H6.34144V0Z" fill="white"/>
</svg>
